<svg width="239" height="212" viewBox="0 0 239 212" fill="none" xmlns="http://www.w3.org/2000/svg">
<path d="M235.3 100.1C232.2 91.7 226.7 84.9 220 80C218.7 79.1 218.1 77.4 218.4 75.8C220.4 67.7 220.1 59 217 50.6C211.2 34.9 197.2 24.6 181.6 22.8L179.6 22.7H103.3C103 22.7 102.7 22.7 102.4 22.8C95.1 22.9 89.3 28.8 89.3 36.1C89.3 43.4 95.3 49.4 102.6 49.4C102.7 49.4 102.9 49.4 103 49.4C103.1 49.4 103.2 49.4 103.3 49.4H163.5H177.2C183.9 49.6 190.1 53 192.6 59.6C195.7 67.8 191.9 76.9 184.3 80.7C183.7 81 181.5 81.5 181.5 81.5L177 81.6H132.4C131.8 81.6 131.4 81.6 131.2 81.7C127.6 82.2 124.8 85.3 124.8 89.1C124.8 92.9 127.6 96 131.3 96.5C131.5 96.6 131.9 96.6 132.3 96.6H186.1C188.7 96.7 191.2 96.9 192.9 97.1C197.1 97.6 198.4 98.3 199.4 98.6C204.6 100 209 103.8 211 109.2C214.3 118 209.8 127.8 200.9 131.1C197.1 132.6 193 133.2 189 133H188.4L103.2 133.1C103.2 133.1 102.6 133.1 102.1 132.9C101.7 132.8 101.3 132.6 100.9 132.4C100.5 132.1 100.2 131.8 99.9 131.5C99.4 130.9 99.3 130.4 99.3 130.4L53.7 10.4C53.7 10.4 52 6 51.6 5.4C49.9 2.2 46.5 0 42.5 0C42.3 0 40 0 40 0H12.9C12.8 0 12.8 0 12.7 0C12.6 0 12.6 0 12.5 0C5.6 0 0 5.6 0 12.5C0 19.1 5.2 24.5 11.7 24.9C11.9 24.9 12.2 25 12.4 25H29C30.7 25 32.2 26 32.8 27.6L78.4 147.6L79.1 149.5C79.2 149.7 79.3 150 79.4 150.2C81.6 154.8 86.3 158 91.8 158C92.2 158 93.1 158 93.1 158H195.8C195.9 158 196 158 196.1 158C197.2 157.9 204.3 157.3 208.7 155.7L210 155.3C232.2 147.1 243.6 122.4 235.3 100.1Z" fill="url(#paint0_linear_357_107)"/>
<path d="M119.5 211.1C129.497 211.1 137.6 202.997 137.6 193C137.6 183.004 129.497 174.9 119.5 174.9C109.504 174.9 101.4 183.004 101.4 193C101.4 202.997 109.504 211.1 119.5 211.1Z" fill="#A7DB09"/>
<path d="M183.8 211.1C193.797 211.1 201.9 202.997 201.9 193C201.9 183.004 193.797 174.9 183.8 174.9C173.804 174.9 165.7 183.004 165.7 193C165.7 202.997 173.804 211.1 183.8 211.1Z" fill="#A7DB09"/>
<defs>
<linearGradient id="paint0_linear_357_107" x1="58.8012" y1="-43.4293" x2="208.134" y2="195.553" gradientUnits="userSpaceOnUse">
<stop stop-color="#3D3080"/>
<stop offset="0.65" stop-color="#00AEFF"/>
<stop offset="1" stop-color="#00FFC0"/>
</linearGradient>
</defs>
</svg>
