<?xml version="1.0" encoding="utf-8"?>
<!-- Generator: Adobe Illustrator 21.0.0, SVG Export Plug-In . SVG Version: 6.00 Build 0)  -->
<svg version="1.1" id="Слой_1" xmlns="http://www.w3.org/2000/svg" xmlns:xlink="http://www.w3.org/1999/xlink" x="0px" y="0px"
	 viewBox="0 0 1118.8 224.5" style="enable-background:new 0 0 1118.8 224.5;" xml:space="preserve">
<style type="text/css">
	.st0{fill:#202633;}
	.st1{fill:#5E6572;}
	.st2{fill:url(#SVGID_1_);}
	.st3{fill:#A7DB09;}
</style>
<g>
	<path class="st0" d="M346.7,56.8c2.1,2.1,3.1,4.8,3.1,8v46.5c0,13.2-3.6,23.5-10.9,31c-7.3,7.4-17.6,11.2-31,11.2
		c-13.4,0-23.7-3.7-31-11.2c-7.2-7.4-10.8-17.8-10.8-31V64.8c0-3.2,1-5.8,3.1-8c2.1-2.1,4.7-3.2,7.9-3.2c3.2,0,5.8,1.1,7.9,3.2
		c2.1,2.1,3.1,4.8,3.1,8v46.5c0,7.4,1.6,13,4.9,16.6c3.3,3.6,8.2,5.4,14.8,5.4c6.7,0,11.7-1.8,15-5.4c3.3-3.6,4.9-9.1,4.9-16.6V64.8
		c0-3.2,1-5.8,3.1-8c2.1-2.1,4.7-3.2,7.9-3.2C342,53.6,344.6,54.7,346.7,56.8z"/>
	<path class="st0" d="M447.3,58.3c6.8,4.3,12.2,10.3,16.2,18c4,7.7,6,16.4,6,26.2c0,9.8-2,18.5-5.9,26.3c-3.9,7.8-9.2,13.8-16,18.1
		c-6.8,4.3-14.3,6.5-22.4,6.5c-5.9,0-11.4-1.2-16.6-3.6c-5.2-2.4-9.5-5.3-12.9-8.7v1.1c0,3.2-1,5.8-3.1,8c-2.1,2.1-4.7,3.2-7.9,3.2
		c-3.2,0-5.8-1-7.9-3.1c-2.1-2.1-3.1-4.8-3.1-8.1v-115c0-3.2,1-5.8,3.1-8c2.1-2.1,4.7-3.2,7.9-3.2c3.2,0,5.8,1.1,7.9,3.2
		c2.1,2.1,3.1,4.8,3.1,8v38.3c2.9-3.7,7-6.9,12.3-9.6c5.2-2.7,10.7-4.1,16.5-4.1C432.8,51.8,440.4,54,447.3,58.3z M440.8,124.5
		c5-5.9,7.5-13.2,7.5-22c0-8.8-2.5-16.1-7.4-21.9c-4.9-5.8-11.4-8.7-19.3-8.7c-7.9,0-14.4,2.9-19.4,8.7c-5,5.8-7.5,13.1-7.5,21.9
		c0,8.8,2.5,16.1,7.5,22c5,5.9,11.5,8.8,19.4,8.8C429.4,133.3,435.8,130.4,440.8,124.5z"/>
	<path class="st0" d="M488.5,39.7c-1.7-1.3-2.6-3.7-2.6-7.1v-3.5c0-3.4,0.9-5.8,2.7-7.1c1.8-1.3,4.8-2,8.8-2c4.3,0,7.3,0.7,9,2
		c1.7,1.3,2.6,3.7,2.6,7.1v3.5c0,3.5-0.9,6-2.7,7.2c-1.8,1.3-4.8,1.9-9.1,1.9C493.1,41.7,490.2,41,488.5,39.7z M505.3,148.4
		c-2.1,2.1-4.7,3.2-7.9,3.2c-3.2,0-5.8-1.1-7.9-3.2c-2.1-2.1-3.1-4.8-3.1-8V64.8c0-3.2,1-5.8,3.1-8c2.1-2.1,4.7-3.2,7.9-3.2
		c3.2,0,5.8,1.1,7.9,3.2c2.1,2.1,3.1,4.8,3.1,8v75.6C508.4,143.6,507.4,146.3,505.3,148.4z"/>
	<path class="st0" d="M664,67.4c5.2,6.8,7.8,15.7,7.8,26.8v51.8c0,1.6-0.5,2.9-1.6,3.9c-1,1-2.4,1.6-3.9,1.6c-1.6,0-2.9-0.5-3.9-1.6
		c-1-1-1.6-2.3-1.6-3.9V94.8c0-8.1-1.9-14.6-5.8-19.7c-3.8-5.1-9.8-7.6-17.9-7.6c-5.1,0-10,1.2-14.6,3.7c-4.6,2.4-8.3,5.8-11.1,10
		c-2.8,4.2-4.2,8.8-4.2,13.6v51.3c0,1.6-0.5,2.9-1.6,3.9c-1,1-2.4,1.6-3.9,1.6c-1.6,0-2.9-0.5-3.9-1.6c-1-1-1.6-2.3-1.6-3.9V94.3
		c0-7.9-1.8-14.4-5.5-19.3s-9.4-7.4-17.2-7.4c-5,0-9.7,1.2-14.2,3.7c-4.5,2.4-8.1,5.7-10.8,9.8c-2.7,4.1-4.1,8.5-4.1,13.3v51.8
		c0,1.6-0.5,2.9-1.6,3.9c-1,1-2.4,1.6-3.9,1.6c-1.6,0-2.9-0.5-3.9-1.6c-1-1-1.6-2.3-1.6-3.9v-82c0-1.6,0.5-2.9,1.6-3.9
		c1-1,2.3-1.6,3.9-1.6c1.6,0,2.9,0.5,3.9,1.6c1,1,1.6,2.4,1.6,3.9v10.6c3.3-5,7.8-9.2,13.4-12.5c5.6-3.3,11.5-4.9,17.8-4.9
		c7.1,0,13.2,1.7,18.3,5.1c5.1,3.4,8.8,8.4,11,15c2.6-5.4,7.3-10.1,14.1-14.1c6.8-4,13.7-6,20.7-6C650.7,57.3,658.8,60.7,664,67.4z"
		/>
	<path class="st0" d="M780.5,59.7c1,1.1,1.6,2.4,1.6,4v82.4c0,1.6-0.5,2.9-1.6,3.9c-1,1-2.4,1.6-3.9,1.6c-1.6,0-2.9-0.5-3.9-1.6
		c-1-1-1.6-2.3-1.6-3.9v-12.3c-3.1,5.5-7.6,10.1-13.7,13.9c-6.1,3.8-12.8,5.7-20,5.7c-8.2,0-15.5-2.1-22.1-6.4
		c-6.5-4.3-11.7-10.1-15.4-17.6c-3.7-7.4-5.6-15.8-5.6-25.1c0-9.3,1.9-17.6,5.7-25c3.8-7.4,8.9-13.2,15.5-17.3
		c6.5-4.1,13.8-6.2,21.7-6.2c7.3,0,14,1.8,20.1,5.3c6.1,3.5,10.7,8.2,13.7,13.9V63.7c0-1.6,0.5-2.9,1.6-4c1-1.1,2.3-1.6,3.9-1.6
		C778.1,58,779.4,58.6,780.5,59.7z M755.6,138.1c5.1-3.4,9-8,11.9-13.9c2.9-5.9,4.3-12.5,4.3-19.9c0-7.1-1.4-13.6-4.3-19.4
		c-2.9-5.9-6.8-10.5-11.9-13.8c-5.1-3.4-10.8-5-17.1-5c-6.3,0-12.1,1.6-17.1,4.9c-5.1,3.3-9,7.8-11.9,13.6
		c-2.9,5.8-4.3,12.4-4.3,19.7c0,7.3,1.4,14,4.2,19.9c2.8,5.9,6.7,10.6,11.8,13.9c5.1,3.4,10.8,5,17.3,5
		C744.8,143.2,750.5,141.5,755.6,138.1z"/>
	<path class="st0" d="M861.1,57.3c2,1,2.9,2.4,2.9,4.4c0,1.7-0.5,3.1-1.5,4.1c-1,1-2.1,1.6-3.5,1.6c-0.6,0-1.8-0.3-3.6-0.9
		c-1.8-0.6-3.5-0.9-5-0.9c-4.5,0-9,1.7-13.5,5.2c-4.5,3.5-8.1,8-11,13.5c-2.9,5.5-4.3,11.1-4.3,16.7v45.2c0,1.6-0.5,2.9-1.6,3.9
		c-1,1-2.4,1.6-3.9,1.6c-1.6,0-2.9-0.5-3.9-1.6c-1-1-1.6-2.3-1.6-3.9v-82c0-1.6,0.5-2.9,1.6-3.9c1-1,2.3-1.6,3.9-1.6
		c1.6,0,2.9,0.5,3.9,1.6c1,1,1.6,2.4,1.6,3.9v16.1c2.8-7,7.1-12.7,12.7-17.3c5.7-4.6,12.4-6.9,20.1-7.1
		C857,55.8,859.2,56.3,861.1,57.3z"/>
	<path class="st0" d="M957.1,146.1c0,1.6-0.6,2.9-1.9,3.9c-1.3,1-2.5,1.6-3.6,1.6c-1.6,0-2.9-0.7-4-2l-40.5-42.9l-13.7,11.7v27.7
		c0,1.6-0.5,2.9-1.6,3.9c-1,1-2.4,1.6-3.9,1.6c-1.6,0-2.9-0.5-3.9-1.6c-1-1-1.6-2.3-1.6-3.9V21.6c0-1.6,0.5-2.9,1.6-3.9
		c1-1,2.3-1.6,3.9-1.6c1.6,0,2.9,0.5,3.9,1.6c1,1,1.6,2.4,1.6,3.9v83.5l52.9-45.6c1.1-1.2,2.4-1.8,3.8-1.8c1.3,0,2.6,0.6,3.7,1.7
		c1.1,1.2,1.6,2.4,1.6,3.8c0,1.5-0.7,2.9-2,4.2l-37.7,32l39.7,42.5C956.6,143.1,957.1,144.5,957.1,146.1z"/>
	<path class="st0" d="M1052.7,103.2c-1.1,1-2.4,1.6-3.8,1.6h-69.2c0,7.3,1.5,13.9,4.5,19.7c3,5.8,7.3,10.4,12.8,13.7
		c5.6,3.4,12.1,5,19.7,5c5.9,0,11.1-1.2,15.8-3.7c4.6-2.4,8.4-5.6,11.2-9.3c1.3-1.1,2.6-1.6,3.8-1.6c1.2,0,2.3,0.5,3.3,1.5
		c1,1,1.5,2.1,1.5,3.3c0,1.3-0.6,2.6-1.8,3.8c-3.9,4.8-8.8,8.7-14.7,11.7c-5.9,3.1-12.2,4.6-18.8,4.6c-9.4,0-17.7-2-24.9-6
		c-7.2-4-12.8-9.7-16.8-16.9c-4-7.3-6-15.7-6-25.2c0-10,2-18.8,6-26.3c4-7.5,9.2-13.2,15.8-17.2c6.6-4,13.6-6,21.1-6
		c7.3,0,14.2,1.7,20.6,5.1c6.4,3.4,11.6,8.4,15.7,15c4,6.6,6.1,14.4,6.2,23.4C1054.4,100.9,1053.8,102.1,1052.7,103.2z M992.2,73.8
		c-6,4.9-9.9,11.9-11.6,21.1h62.5v-1.5c-0.6-5.5-2.4-10.3-5.5-14.4c-3.1-4.1-6.9-7.2-11.4-9.3c-4.6-2.1-9.3-3.2-14.2-3.2
		C1004.8,66.4,998.2,68.9,992.2,73.8z"/>
	<path class="st0" d="M1095.4,68.6V130c0,4.6,0.9,7.8,2.6,9.4c1.7,1.6,4,2.5,6.8,2.5c0.7,0,1.6-0.2,2.7-0.5c1.1-0.3,2-0.5,2.6-0.5
		c1.1,0,2,0.5,2.8,1.4c0.8,0.9,1.2,2,1.2,3.2c0,1.7-1,3.1-2.9,4.3c-2,1.2-4.3,1.7-7,1.7c-3.3,0-6.2-0.3-8.8-0.9
		c-2.6-0.6-5-2.4-7.4-5.5c-2.4-3-3.6-7.9-3.6-14.7V68.6H1071c-1.5,0-2.7-0.5-3.8-1.5c-1-1-1.6-2.2-1.6-3.7c0-1.5,0.5-2.7,1.6-3.7
		c1-1,2.3-1.5,3.8-1.5h13.4V38.1c0-1.6,0.5-2.9,1.6-3.9c1-1,2.3-1.6,3.9-1.6c1.6,0,2.9,0.5,3.9,1.6c1,1,1.6,2.4,1.6,3.9v20.3h18.3
		c1.3,0,2.5,0.5,3.6,1.6c1,1.1,1.6,2.3,1.6,3.7c0,1.5-0.5,2.7-1.5,3.6c-1,0.9-2.2,1.4-3.7,1.4H1095.4z"/>
</g>
<g>
	<path class="st1" d="M291.8,183.5c2.1,1.4,3.8,3.3,5.1,5.7c1.2,2.4,1.8,5.1,1.8,8.2c0,3-0.6,5.8-1.8,8.2c-1.2,2.5-2.9,4.4-5.1,5.7
		c-2.1,1.4-4.5,2-7.1,2c-2,0-3.9-0.4-5.7-1.3c-1.8-0.9-3.2-2-4.3-3.3v1.7c0,0.8-0.3,1.4-0.8,2c-0.5,0.5-1.2,0.8-2,0.8
		c-0.8,0-1.4-0.3-2-0.8s-0.8-1.2-0.8-2v-38.1c0-0.8,0.3-1.5,0.8-2c0.5-0.5,1.2-0.8,2-0.8c0.8,0,1.5,0.3,2,0.8s0.8,1.2,0.8,2v14.3
		c0.9-1.4,2.3-2.6,4.1-3.6c1.8-1,3.7-1.5,5.7-1.5C287.3,181.5,289.7,182.2,291.8,183.5z M288.9,206.8c1.4-1,2.6-2.3,3.4-3.9
		c0.8-1.7,1.2-3.5,1.2-5.5c0-2-0.4-3.9-1.2-5.5c-0.8-1.6-1.9-2.9-3.4-3.9c-1.4-0.9-3.1-1.4-4.9-1.4c-1.8,0-3.5,0.5-4.9,1.4
		c-1.4,0.9-2.6,2.2-3.4,3.8c-0.8,1.6-1.2,3.5-1.2,5.5s0.4,3.9,1.2,5.6c0.8,1.6,1.9,2.9,3.4,3.9c1.4,1,3.1,1.4,4.9,1.4
		C285.8,208.3,287.4,207.8,288.9,206.8z"/>
	<path class="st1" d="M330,182.7c0.5,0.5,0.8,1.2,0.8,2V210c0,4.9-1.3,8.5-4,10.9c-2.7,2.4-6.2,3.6-10.6,3.6c-1.4,0-2.9-0.1-4.3-0.4
		c-1.4-0.3-2.6-0.6-3.4-1.1c-1.4-0.7-2.2-1.6-2.2-2.7c0-0.2,0-0.4,0.1-0.8c0.2-0.7,0.6-1.2,1-1.5c0.4-0.4,0.9-0.5,1.5-0.5
		c0.3,0,0.6,0.1,0.9,0.2c1.2,0.5,2.3,1,3.2,1.3c0.9,0.3,2,0.5,3.3,0.5c6,0,9.1-3.1,9.1-9.3V209c-1.1,1.4-2.4,2.5-4.1,3.3
		c-1.7,0.8-3.6,1.2-5.7,1.2c-3.2,0-5.8-1-7.6-3.1c-1.8-2.1-2.7-4.8-2.7-8.1v-17.5c0-0.8,0.3-1.5,0.8-2c0.5-0.5,1.2-0.8,2-0.8
		c0.8,0,1.5,0.3,2,0.8s0.8,1.2,0.8,2v16c0,2.6,0.6,4.5,1.7,5.7c1.1,1.2,2.8,1.8,5.1,1.8c2.2,0,4.1-0.7,5.5-2.1
		c1.4-1.4,2.2-3.2,2.2-5.4v-16c0-0.8,0.3-1.5,0.8-2c0.5-0.5,1.2-0.8,2-0.8C328.8,181.9,329.5,182.2,330,182.7z"/>
	<path class="st1" d="M386.9,172.6c0.5,0.5,0.7,1.2,0.7,2v22.5c0,3.1-0.7,5.8-2,8.3c-1.4,2.5-3.2,4.4-5.6,5.8s-5.1,2.1-8.1,2.1
		c-3,0-5.8-0.7-8.2-2.1c-2.4-1.4-4.3-3.3-5.7-5.8c-1.4-2.5-2-5.2-2-8.3v-22.5c0-0.8,0.3-1.5,0.8-2c0.5-0.5,1.2-0.8,2.1-0.8
		c0.7,0,1.4,0.3,2,0.8c0.6,0.5,0.8,1.2,0.8,2v22.5c0,2,0.5,3.9,1.4,5.5c0.9,1.6,2.2,2.9,3.7,3.8c1.6,0.9,3.2,1.3,5,1.3
		c1.9,0,3.6-0.4,5.2-1.3c1.6-0.9,2.9-2.2,3.8-3.8c1-1.6,1.4-3.4,1.4-5.5v-22.5c0-0.8,0.2-1.5,0.7-2s1.1-0.8,1.9-0.8
		C385.7,171.8,386.4,172.1,386.9,172.6z"/>
	<path class="st1" d="M419.2,183.5c2.1,1.4,3.8,3.3,5.1,5.7c1.2,2.4,1.8,5.1,1.8,8.2c0,3-0.6,5.8-1.8,8.2c-1.2,2.5-2.9,4.4-5.1,5.7
		c-2.1,1.4-4.5,2-7.1,2c-2,0-3.9-0.4-5.7-1.3c-1.8-0.9-3.2-2-4.3-3.3v1.7c0,0.8-0.3,1.4-0.8,2c-0.5,0.5-1.2,0.8-2,0.8
		c-0.8,0-1.4-0.3-2-0.8s-0.8-1.2-0.8-2v-38.1c0-0.8,0.3-1.5,0.8-2c0.5-0.5,1.2-0.8,2-0.8c0.8,0,1.5,0.3,2,0.8s0.8,1.2,0.8,2v14.3
		c0.9-1.4,2.3-2.6,4.1-3.6c1.8-1,3.7-1.5,5.7-1.5C414.6,181.5,417,182.2,419.2,183.5z M416.2,206.8c1.4-1,2.6-2.3,3.4-3.9
		c0.8-1.7,1.2-3.5,1.2-5.5c0-2-0.4-3.9-1.2-5.5c-0.8-1.6-1.9-2.9-3.4-3.9c-1.4-0.9-3.1-1.4-4.9-1.4c-1.8,0-3.5,0.5-4.9,1.4
		c-1.4,0.9-2.6,2.2-3.4,3.8c-0.8,1.6-1.2,3.5-1.2,5.5s0.4,3.9,1.2,5.6c0.8,1.6,1.9,2.9,3.4,3.9c1.4,1,3.1,1.4,4.9,1.4
		C413.1,208.3,414.8,207.8,416.2,206.8z"/>
	<path class="st1" d="M432.5,177.4c-0.5-0.4-0.7-1.1-0.7-2v-0.9c0-0.9,0.3-1.6,0.8-2c0.5-0.4,1.3-0.6,2.4-0.6c1.1,0,1.9,0.2,2.4,0.6
		c0.5,0.4,0.7,1.1,0.7,2v0.9c0,0.9-0.3,1.6-0.8,2c-0.5,0.4-1.3,0.6-2.4,0.6C433.8,178,433,177.8,432.5,177.4z M437,212
		c-0.5,0.5-1.2,0.8-2,0.8c-0.8,0-1.4-0.3-2-0.8c-0.5-0.5-0.8-1.2-0.8-2v-25.3c0-0.8,0.3-1.4,0.8-2c0.5-0.5,1.2-0.8,2-0.8
		c0.8,0,1.5,0.3,2,0.8c0.5,0.5,0.8,1.2,0.8,2V210C437.8,210.8,437.5,211.5,437,212z"/>
	<path class="st1" d="M466.8,182.9c2,1,3.1,2.2,3.1,3.7c0,0.7-0.2,1.3-0.6,1.8c-0.4,0.5-1,0.8-1.6,0.8c-0.5,0-0.9-0.1-1.2-0.2
		c-0.3-0.2-0.7-0.4-1.2-0.8c-0.2-0.2-0.6-0.5-1.1-0.8c-0.5-0.2-1.1-0.4-2-0.6c-0.9-0.2-1.6-0.2-2.3-0.2c-2,0-3.8,0.5-5.4,1.4
		c-1.6,0.9-2.8,2.2-3.6,3.9c-0.9,1.7-1.3,3.5-1.3,5.5c0,2.1,0.4,3.9,1.3,5.6c0.8,1.6,2,2.9,3.5,3.9c1.5,0.9,3.3,1.4,5.2,1.4
		c2,0,3.7-0.3,4.9-0.9c0.3-0.2,0.6-0.4,1.1-0.8c0.4-0.3,0.7-0.5,1-0.7c0.3-0.2,0.7-0.2,1.1-0.2c0.8,0,1.4,0.2,1.8,0.7
		c0.4,0.5,0.7,1.1,0.7,1.9c0,0.8-0.5,1.6-1.5,2.4c-1,0.8-2.4,1.5-4.2,2c-1.7,0.5-3.6,0.8-5.6,0.8c-3,0-5.6-0.7-7.8-2.1
		c-2.3-1.4-4-3.3-5.2-5.7c-1.2-2.4-1.8-5.2-1.8-8.2s0.6-5.7,1.9-8.2c1.3-2.4,3.1-4.3,5.4-5.7c2.3-1.4,4.9-2.1,7.9-2.1
		C462.2,181.5,464.8,182,466.8,182.9z"/>
	<path class="st1" d="M493.7,182.3c0.7,0.5,1.1,1.2,1.1,2c0,0.9-0.2,1.6-0.7,2.1c-0.5,0.5-1.1,0.7-1.8,0.7c-0.4,0-0.9-0.1-1.6-0.4
		c-0.8-0.3-1.5-0.4-1.9-0.4c-1.2,0-2.4,0.4-3.5,1.3c-1.1,0.8-2.1,2-2.8,3.5c-0.7,1.5-1.1,3.1-1.1,4.9V210c0,0.8-0.3,1.4-0.8,2
		s-1.2,0.8-2,0.8c-0.8,0-1.5-0.3-2-0.8c-0.5-0.5-0.8-1.2-0.8-2v-25c0-0.8,0.3-1.4,0.8-2c0.5-0.5,1.2-0.8,2-0.8c0.8,0,1.5,0.3,2,0.8
		c0.5,0.5,0.8,1.2,0.8,2v3c0.9-1.9,2.1-3.5,3.9-4.6s3.7-1.8,5.8-1.8C492.1,181.5,493,181.7,493.7,182.3z"/>
	<path class="st1" d="M525.7,205.7c-1.4,2.4-3.2,4.3-5.6,5.7c-2.4,1.4-5,2-7.8,2c-2.8,0-5.4-0.7-7.8-2c-2.4-1.4-4.2-3.3-5.6-5.7
		c-1.4-2.4-2-5.1-2-8.2c0-3,0.7-5.8,2-8.2c1.4-2.5,3.2-4.4,5.6-5.7c2.4-1.4,5-2,7.8-2c2.8,0,5.4,0.7,7.8,2c2.4,1.4,4.2,3.3,5.6,5.7
		c1.4,2.5,2,5.2,2,8.2C527.7,200.5,527,203.3,525.7,205.7z M520.8,191.9c-0.9-1.7-2.1-2.9-3.6-3.9c-1.5-0.9-3.2-1.4-5-1.4
		c-1.8,0-3.5,0.5-5,1.4c-1.5,0.9-2.7,2.2-3.6,3.9c-0.9,1.7-1.3,3.5-1.3,5.6c0,2.1,0.4,3.9,1.3,5.6c0.9,1.6,2.1,2.9,3.6,3.8
		c1.5,0.9,3.2,1.4,5,1.4c1.8,0,3.5-0.5,5-1.4c1.5-0.9,2.7-2.2,3.6-3.8c0.9-1.6,1.3-3.5,1.3-5.6C522.2,195.4,521.7,193.5,520.8,191.9
		z"/>
	<path class="st1" d="M531.9,206.4c0-0.8,0.4-1.4,1.2-2c0.4-0.3,0.8-0.4,1.3-0.4c0.7,0,1.3,0.3,1.9,0.9c1.2,1.3,2.4,2.3,3.8,3
		c1.3,0.7,3,1,4.8,1c1.5,0,2.8-0.4,3.9-1c1.1-0.6,1.7-1.7,1.7-3.1c0-1.3-0.6-2.3-1.7-3c-1.2-0.7-2.8-1.3-5.1-1.9
		c-2.2-0.6-4-1.2-5.4-1.8c-1.4-0.6-2.7-1.6-3.7-2.8c-1-1.2-1.5-2.8-1.5-4.8c0-1.8,0.5-3.3,1.5-4.6s2.3-2.4,4-3.1
		c1.7-0.7,3.5-1.1,5.4-1.1c1.9,0,3.7,0.4,5.6,1.1c1.9,0.7,3.4,1.8,4.5,3.2c0.5,0.5,0.7,1.1,0.7,1.7c0,0.6-0.3,1.2-0.9,1.8
		c-0.4,0.4-0.9,0.5-1.5,0.5c-0.7,0-1.3-0.2-1.7-0.7c-0.8-0.9-1.8-1.7-3-2.2c-1.2-0.5-2.5-0.8-3.9-0.8c-1.5,0-2.7,0.3-3.8,0.9
		c-1,0.6-1.5,1.6-1.5,3.1c0,1.4,0.6,2.4,1.8,3c1.1,0.7,2.9,1.3,5.3,1.9c2.1,0.5,3.8,1.1,5.1,1.8c1.4,0.6,2.5,1.5,3.4,2.8
		s1.4,2.8,1.4,4.8c0,1.8-0.5,3.4-1.6,4.8c-1.1,1.3-2.4,2.4-4.1,3.1c-1.7,0.7-3.5,1.1-5.4,1.1c-2.5,0-4.7-0.4-6.8-1.3
		c-2.1-0.9-3.9-2.2-5.3-4.1C532,207.5,531.9,206.9,531.9,206.4z"/>
	<path class="st1" d="M559.8,206.4c0-0.8,0.4-1.4,1.2-2c0.4-0.3,0.8-0.4,1.3-0.4c0.7,0,1.3,0.3,1.9,0.9c1.2,1.3,2.4,2.3,3.8,3
		c1.3,0.7,3,1,4.8,1c1.5,0,2.8-0.4,3.9-1c1.1-0.6,1.7-1.7,1.7-3.1c0-1.3-0.6-2.3-1.7-3c-1.2-0.7-2.8-1.3-5.1-1.9
		c-2.2-0.6-4-1.2-5.4-1.8c-1.4-0.6-2.7-1.6-3.7-2.8c-1-1.2-1.5-2.8-1.5-4.8c0-1.8,0.5-3.3,1.5-4.6s2.3-2.4,4-3.1
		c1.7-0.7,3.5-1.1,5.4-1.1c1.9,0,3.7,0.4,5.6,1.1c1.9,0.7,3.4,1.8,4.5,3.2c0.5,0.5,0.7,1.1,0.7,1.7c0,0.6-0.3,1.2-0.9,1.8
		c-0.4,0.4-0.9,0.5-1.5,0.5c-0.7,0-1.3-0.2-1.7-0.7c-0.8-0.9-1.8-1.7-3-2.2c-1.2-0.5-2.5-0.8-3.9-0.8c-1.5,0-2.7,0.3-3.8,0.9
		c-1,0.6-1.5,1.6-1.5,3.1c0,1.4,0.6,2.4,1.8,3c1.1,0.7,2.9,1.3,5.3,1.9c2.1,0.5,3.8,1.1,5.1,1.8c1.4,0.6,2.5,1.5,3.5,2.8
		s1.4,2.8,1.4,4.8c0,1.8-0.5,3.4-1.6,4.8c-1.1,1.3-2.4,2.4-4.1,3.1c-1.7,0.7-3.5,1.1-5.4,1.1c-2.5,0-4.7-0.4-6.8-1.3
		c-2.1-0.9-3.9-2.2-5.3-4.1C559.9,207.5,559.8,206.9,559.8,206.4z"/>
</g>
<linearGradient id="SVGID_1_" gradientUnits="userSpaceOnUse" x1="58.8012" y1="-43.4293" x2="208.1338" y2="195.5528">
	<stop  offset="0" style="stop-color:#3D3080"/>
	<stop  offset="0.65" style="stop-color:#00AEFF"/>
	<stop  offset="1" style="stop-color:#00FFC0"/>
</linearGradient>
<path class="st2" d="M235.3,100.1c-3.1-8.4-8.6-15.2-15.3-20.1c-1.3-0.9-1.9-2.6-1.6-4.2c2-8.1,1.7-16.8-1.4-25.2
	c-5.8-15.7-19.8-26-35.4-27.8l-2-0.1h-76.3c-0.3,0-0.6,0-0.9,0.1c-7.3,0.1-13.1,6-13.1,13.3c0,7.3,6,13.3,13.3,13.3
	c0.1,0,0.3,0,0.4,0c0.1,0,0.2,0,0.3,0h60.2h13.7c6.7,0.2,12.9,3.6,15.4,10.2c3.1,8.2-0.7,17.3-8.3,21.1c-0.6,0.3-2.8,0.8-2.8,0.8
	l-4.5,0.1h-44.6c-0.6,0-1,0-1.2,0.1c-3.6,0.5-6.4,3.6-6.4,7.4c0,3.8,2.8,6.9,6.5,7.4c0.2,0.1,0.6,0.1,1,0.1c0,0,0,0,0,0c0,0,0,0,0,0
	c0,0,0,0,0,0h53.8c2.6,0.1,5.1,0.3,6.8,0.5c4.2,0.5,5.5,1.2,6.5,1.5c5.2,1.4,9.6,5.2,11.6,10.6c3.3,8.8-1.2,18.6-10.1,21.9
	c-3.8,1.5-7.9,2.1-11.9,1.9h-0.6l-85.2,0.1c0,0-0.6,0-1.1-0.2c-0.4-0.1-0.8-0.3-1.2-0.5c-0.4-0.3-0.7-0.6-1-0.9
	c-0.5-0.6-0.6-1.1-0.6-1.1L53.7,10.4c0,0-1.7-4.4-2.1-5C49.9,2.2,46.5,0,42.5,0C42.3,0,40,0,40,0H12.9c-0.1,0-0.1,0-0.2,0
	c-0.1,0-0.1,0-0.2,0C5.6,0,0,5.6,0,12.5c0,6.6,5.2,12,11.7,12.4c0.2,0,0.5,0.1,0.7,0.1H29c1.7,0,3.2,1,3.8,2.6l45.6,120l0.7,1.9
	c0.1,0.2,0.2,0.5,0.3,0.7c2.2,4.6,6.9,7.8,12.4,7.8c0.4,0,1.3,0,1.3,0h102.7c0.1,0,0.2,0,0.3,0c1.1-0.1,8.2-0.7,12.6-2.3l1.3-0.4
	C232.2,147.1,243.6,122.4,235.3,100.1z"/>
<circle class="st3" cx="119.5" cy="193" r="18.1"/>
<circle class="st3" cx="183.8" cy="193" r="18.1"/>
</svg>
